<svg xmlns="http://www.w3.org/2000/svg" shape-rendering="geometricPrecision" text-rendering="geometricPrecision" image-rendering="optimizeQuality" fill-rule="evenodd" clip-rule="evenodd" viewBox="0 0 476 490.462"><path fill="#D9E9F0" fill-rule="nonzero" d="M232.203 0c131.469 0 232.204 111.394 232.204 240.429 0 20.842-2.641 41.217-7.6 60.742-20.362-18.359-46.973-29.48-76.074-29.48-32.004 0-60.997 13.45-81.977 35.184-20.984 21.735-33.969 51.76-33.969 84.912 0 30.886 11.274 59.064 29.787 80.346-19.741 5.666-40.633 8.728-62.371 8.728C100.718 480.861 0 369.498 0 240.429 0 112.11 99.976 0 232.203 0z"/><path fill="#194794" fill-rule="nonzero" d="M294.904 472.515a233.54 233.54 0 01-52.225 8.301 455.362 455.362 0 01-30.106-.586c-25.585-2.14-50.088-8.425-72.872-18.204-29.575-12.693-56.208-31.312-78.499-54.422a248.313 248.313 0 01-15.731-17.932c12.814-29.766 43.04-47.465 73.507-51.541 29.215-3.906 53.527-7.87 63.81-43.185 2.662 2.331 5.456 4.684 8.306 7.217 26.612 23.66 56.599 24.688 82.238-.038 2.106-2.039 4.168-3.956 6.139-5.823 3.286 7.313 7.692 13.119 12.861 17.792-17.177 20.946-27.545 48.07-27.545 77.693 0 31.071 11.408 59.402 30.117 80.728z"/><path fill="#D2A75F" fill-rule="nonzero" d="M279.471 296.309c3.286 7.311 7.692 13.115 12.859 17.788a120.969 120.969 0 00-18.191 30.383c-38.677 11.854-82.24 5.41-116.945-15.748 14.098-7.593 21.158-18.587 25.58-33.794 2.66 2.331 5.463 4.684 8.319 7.225 26.614 23.661 56.6 24.688 82.24-.037 2.106-2.039 4.167-3.958 6.138-5.817z"/><path fill="#DBB26F" fill-rule="nonzero" d="M234.72 350.362c-27.064.12-54.285-7.465-77.526-21.63 14.045-7.562 21.285-18.729 25.587-33.794 2.668 2.331 5.456 4.684 8.312 7.225 13.977 12.426 28.9 18.61 43.627 18.1v30.099z"/><path fill="#E9BE79" d="M140.728 215.396c3.512-10.051 11.678-6.819 23.314-2.572-4.648-21.076.837-37.537 17.338-48.951 35.202-24.356 51.113-3.508 89.268-34.232 21.919 11.039 41.531 29.702 31.537 88.009 10.579-8.016 25.832-7.269 21.034 10.488l-6.555 18.564c-1.566 4.442-2.614 6.054-8.229 5.753-2.482-.133-4.976-1.088-7.464-2.732 2.298 27.392-11 36.329-27.642 52.393-25.634 24.736-55.623 23.715-82.229.045-15.585-13.862-29.426-22.28-30.116-50.778-4.042 1.237-7.861 1.463-11.199-.434-6.648-3.783-9.07-14.796-9.434-21.85-.145-2.835-.024-10.814.377-13.703z"/><path fill="#F2CD8C" d="M140.728 215.397c3.516-10.053 11.676-6.817 23.314-2.574l-.104-.501.104.057c6.065-63.678 37.682-54.103 70.674-62.235v170.117c-14.722.516-29.638-5.662-43.618-18.1-15.584-13.862-29.426-22.278-30.112-50.777-4.04 1.235-7.863 1.462-11.198-.434-9.684-5.512-10.465-25.443-9.06-35.553z"/><path fill="#462917" d="M120.611 125.342c51.338-63.439 110.51-97.943 154.942-41.508 54.449 2.859 73.338 91.702 27.67 126.363 3.658-48.255-10.627-69.898-32.715-80.773-42.04 45.841-98.166-4.165-106.466 82.952l-20.148-10.493c-2.001-24.986 3.852-68.334-23.283-76.541z"/><path fill="#2E2D2C" d="M380.737 293.115c52.63 0 95.263 44.188 95.263 98.674 0 54.514-42.66 98.673-95.263 98.673-52.63 0-95.264-44.188-95.264-98.673 0-54.516 42.661-98.674 95.264-98.674z"/><path fill="#434241" d="M380.737 293.116c20.463 0 39.41 6.682 54.932 18.049 30.495 66.15-12.265 161.641-85.833 173.988-37.452-13.295-64.363-50.078-64.363-93.364 0-54.515 42.661-98.673 95.264-98.673z"/><path fill="#fff" fill-rule="nonzero" d="M363.357 349.767l-.012-2.279c.074-4.8.996-7.946 7.744-7.847l17.281.216c3.59-.015 5.985.687 7.625 2.436 1.623 1.73 2.174 4.137 2.137 7.565l.011 24.022c8.47 0 16.943.035 25.413-.007 4.716.071 7.806 1.003 7.707 7.921l-.208 17.893c.029 7.004-2.633 10.102-9.752 10.02l-23.16.012-.009 24.237c.008 3.302-.553 5.639-2.139 7.329-1.64 1.749-4.035 2.452-7.625 2.436l-17.281.217c-6.748.102-7.67-3.048-7.744-7.848.031-8.79.008-17.581.004-26.371l-23.408-.01c-7.011.021-9.554-3.173-9.521-10.022l-.208-17.893c-.099-6.93 3.002-7.852 7.716-7.921 8.474.042 16.947.01 25.421.007l.008-24.113z"/></svg>