<?xml version="1.0" encoding="utf-8"?><svg version="1.1" id="Layer_1" xmlns="http://www.w3.org/2000/svg" xmlns:xlink="http://www.w3.org/1999/xlink" x="0px" y="0px" width="122.879px" height="93.242px" viewBox="0 0 122.879 93.242" enable-background="new 0 0 122.879 93.242" xml:space="preserve"><g><path fill-rule="evenodd" clip-rule="evenodd" d="M51.933,0.036h31.521l7.185,12.79h14.794c0.786,0,1.428,0.662,1.428,1.429v35.003 c5.257,1.931,9.185,4.161,11.755,6.539c2.808,2.599,4.234,5.514,4.264,8.602c0.03,3.092-1.35,6.024-4.156,8.649 c-4.786,4.479-14.429,8.444-28.976,10.897c-1.671,0.277-3.223-1.036-3.467-2.935s0.911-3.662,2.582-3.94 c13.403-2.26,22.011-5.655,25.986-9.375c1.301-1.216,1.942-2.312,1.934-3.242c-0.009-0.936-0.684-2.043-2.017-3.276 c-1.765-1.633-4.401-3.2-7.905-4.633v7.618c0,0.766-0.66,1.428-1.428,1.428H19.506c-0.767,0-1.429-0.643-1.429-1.428v-8.5 c-5.576,1.91-9.059,4.052-10.86,6.261c-1.003,1.23-1.261,2.413-0.937,3.497c0.472,1.573,1.877,3.242,3.958,4.875 c7.076,5.552,20.555,9.51,33.239,8.611l-2.744-2.146c-1.311-1.023-1.544-2.917-0.52-4.228c1.024-1.312,2.917-1.544,4.229-0.521 l8.878,6.942c1.311,1.024,1.544,2.917,0.52,4.229c-0.132,0.17-0.279,0.32-0.438,0.454l-9.882,8.837 c-1.239,1.109-3.143,1.003-4.252-0.236c-1.108-1.238-1.003-3.143,0.236-4.251l2.28-2.039C28.4,86.376,14.414,81.996,6.771,76 c-3.146-2.468-5.364-5.305-6.277-8.353c-1.06-3.537-0.466-7.092,2.251-10.425c2.599-3.188,7.505-6.194,15.332-8.696V14.255 c0-0.786,0.642-1.429,1.429-1.429h6.652v-4.59h8.22v4.59h8.928c1.858-3.667,3.715-7.335,5.574-11 C50.01-0.411,49.389,0.036,51.933,0.036L51.933,0.036z M97.607,19.144c2.353,0,4.261,1.909,4.261,4.262s-1.908,4.262-4.261,4.262 s-4.262-1.909-4.262-4.262S95.255,19.144,97.607,19.144L97.607,19.144L97.607,19.144z M66.229,24.113 c7.134,0,12.919,5.785,12.919,12.918s-5.785,12.917-12.919,12.917c-7.135,0-12.92-5.785-12.92-12.917 C53.31,29.898,59.094,24.113,66.229,24.113L66.229,24.113z M66.229,15.696c11.782,0,21.336,9.555,21.336,21.335 s-9.554,21.336-21.336,21.336c-11.781,0-21.335-9.556-21.335-21.336S54.448,15.696,66.229,15.696L66.229,15.696z"/></g></svg>