<svg xmlns="http://www.w3.org/2000/svg" shape-rendering="geometricPrecision" text-rendering="geometricPrecision" image-rendering="optimizeQuality" fill-rule="evenodd" clip-rule="evenodd" viewBox="0 0 512 511.395"><circle fill="#FBD433" transform="matrix(2.64076 -.7076 .70759 2.64077 255.696 255.698)" r="93.504"/><path fill="#40270E" fill-rule="nonzero" d="M128.701 162.801c-3.487 5.208-10.54 6.601-15.748 3.114-5.209-3.487-6.602-10.54-3.114-15.748 6.841-10.244 15.111-18.92 24.45-26.118 9.773-7.53 20.727-13.44 32.448-17.827 5.872-2.186 12.406.801 14.592 6.673 2.185 5.872-.802 12.406-6.674 14.592-9.593 3.592-18.536 8.41-26.486 14.535-7.451 5.743-14.037 12.648-19.468 20.779zm258.073-16.965c7.021-.056 12.76 5.593 12.815 12.615.056 7.02-5.593 12.759-12.614 12.815-9.996.109-23.947 5.815-36.97 13.756a139.01 139.01 0 00-11.306 7.665c5.011.331 10.011.932 15.011 1.85 15.735 2.888 31.157 8.862 46.458 19.308 5.81 3.965 7.307 11.891 3.342 17.702-3.966 5.81-11.891 7.307-17.702 3.342-12.186-8.32-24.354-13.057-36.684-15.32-12.392-2.276-25.265-2.104-38.664-.573-2.699.445-5.56.03-8.15-1.373-6.196-3.359-8.495-11.108-5.137-17.303 6.801-12.536 22.335-26.535 39.568-37.04 16.483-10.049 35.169-17.282 50.033-17.444zM257.635 312.04c-6.783 1.847-13.78-2.154-15.627-8.937-1.847-6.783 2.154-13.78 8.937-15.627 19.901-5.45 37.437-.214 48.258 9.663 4.696 4.288 8.195 9.451 10.209 15.073a33.268 33.268 0 011.138 18.642c-1.339 5.955-4.341 11.827-9.269 17.15 4.062 2.823 7.364 6.104 9.792 9.641 3.588 5.223 5.412 11.082 5.24 17.123-.175 6.135-2.374 12.112-6.825 17.442-7.86 9.401-23.578 16.952-48.67 18.47-7.03.413-13.067-4.953-13.48-11.983-.413-7.03 4.952-13.067 11.982-13.48 17.182-1.04 26.786-4.824 30.598-9.383.621-.742.92-1.338.932-1.764.015-.52-.28-1.226-.845-2.047-2.642-3.85-8.901-7.068-17.985-8.11-4.927-.282-9.455-3.424-11.262-8.351-2.425-6.616.973-13.95 7.589-16.376 11.018-4.04 16.269-9.161 17.339-13.922.328-1.46.189-2.99-.338-4.465-.616-1.719-1.754-3.36-3.318-4.788-5.039-4.599-13.807-6.87-24.395-3.971zm-77.237-152.993c17.509 0 31.701 17.968 31.701 40.136 0 22.165-14.192 40.135-31.701 40.135-17.508 0-31.702-17.97-31.702-40.135 0-22.168 14.194-40.136 31.702-40.136z"/><path fill="#E53935" d="M445.012 314.413c-6.101-42.662-33.961-61.027-59.848-53.019-67.526 20.888-19.235 100.744-41.228 158.864 233.53 30.894 179.158-142.299 101.076-105.845z"/><path fill="#FF847A" d="M387.186 271.414c9.246 2.46 14.216 12.674 4.617 20.783-2.67 1.388-5.352 3.015-8.042 4.792-3.679 2.43-7.784 6.703-11.88 9.178-2.866 1.732-5.728 2.583-8.437 1.308-15.076-7.1 4.208-41.258 23.742-36.061z"/><path fill="#C62828" d="M487.805 314.936c-38.615-20.718-75.198 22.64-60.081 30.191 5.954 2.973 8.918-2.186 12.319-5.845 17.006-18.299 33.449-25.537 49.276-23.236a52.914 52.914 0 00-1.514-1.11z"/><ellipse fill="#89611B" cx="172.923" cy="186.071" rx="11.083" ry="11.703"/></svg>