<?xml version="1.0" encoding="utf-8"?><svg version="1.1" id="Layer_1" xmlns="http://www.w3.org/2000/svg" xmlns:xlink="http://www.w3.org/1999/xlink" x="0px" y="0px" viewBox="0 0 122.88 120.31" style="enable-background:new 0 0 122.88 120.31" xml:space="preserve"><style type="text/css">.st0{fill-rule:evenodd;clip-rule:evenodd;}</style><g><path class="st0" d="M89.63,61.75V51.19c0.45-1.92,1.29-2.91,2.24-3.08C95.17,47.49,94.64,61.01,89.63,61.75L89.63,61.75z M27.03,86.41c4.98-2.21,7.32-3.25,12.18-8.25l0,0c0.02-0.02,0.04-0.04,0.07-0.06l-0.04-0.04c-3.24-3.02-4.78-4.45-6.07-10.64 c-0.03-0.13-0.04-0.25-0.04-0.37h0v-3.48c-0.18,0.03-0.38,0.03-0.57,0.01c-3.47-0.51-5.34-4.75-5.78-8.82 c-0.12-1.12-0.15-2.23-0.07-3.22c0.08-1.07,0.28-2.05,0.6-2.85c0.69-1.74,1.88-2.7,3.61-2.38c0.83,0.15,1.58,0.58,2.21,1.3v-1.41 l-1.41-0.79c-0.39-3.84-1.38-8.58-2.01-12.95c-0.1-0.7-0.16-1.39-0.2-2.07c-1.52,0.31-2.75-1.11-2.97-5.09v-6.41 c0.93-7.67,4.5-10.75,10.36-9.86c5.58-5.83,13.45-9.09,24.29-9c12.08-0.24,22.37,2.58,29.84,10.23c3.93,3.91,5.6,9.98,4.59,18.6 c0.04,1.64-0.05,3.35-0.31,5.16c-0.56,3.89-1.28,8.02-1.5,11.06l-1.88,1.17c1.51-0.11,2.58,0.83,3.21,2.43 c0.32,0.8,0.52,1.78,0.6,2.85c0.08,1,0.05,2.1-0.07,3.22c-0.45,4.07-2.32,8.31-5.78,8.82c-0.15,0.02-0.3,0.02-0.45,0.01v0.52 c0,0.02,0,0.05,0,0.07c0.31,7.55-2.22,10.49-6.26,14.33c0.14,0.05,0.27,0.14,0.39,0.25c4.69,4.72,6.02,5.19,10.1,6.64 c1.24,0.44,2.72,0.97,4.53,1.68l0,0c0.04,0.02,0.08,0.03,0.11,0.05c5.95,3.17,11.16,7.2,15.34,12.4 c4.18,5.19,7.33,11.54,9.17,19.35c0.03,0.1,0.05,0.21,0.05,0.32c0,0.61-0.5,1.11-1.11,1.11H1.11v0c-0.07,0-0.15-0.01-0.23-0.02 c-0.6-0.12-0.98-0.71-0.86-1.31c1.53-7.29,4.16-13.59,8-18.79c3.86-5.22,8.94-9.3,15.37-12.13v0 C24.58,87.5,25.87,86.93,27.03,86.41L27.03,86.41z M41.7,80.41l-0.02,0.02c-4.9,5.03-7.25,6.07-12.24,8.28 c-0.78,0.34-1.62,0.72-2.52,1.13c2.49,5.97,8.45,10.74,15.89,13.75c5.01,2.03,10.69,3.25,16.43,3.51 c5.74,0.26,11.54-0.45,16.82-2.29c7.73-2.69,14.34-7.82,17.95-15.9c-1.12-0.45-2.09-0.82-2.93-1.13c-4.08-1.54-5.31-2.01-9.89-6.6 c-0.02-0.02-0.04-0.04-0.07-0.07c-0.11-0.12-0.19-0.27-0.24-0.42c-0.13,0.12-0.26,0.25-0.38,0.37l-5.37,5.22 c-0.8,0.84-1.64,1.54-2.52,2.1c-0.89,0.57-1.82,1.01-2.78,1.32c-1.43,0.46-4.38,0.65-7.4,0.65c-3.38,0-6.95-0.25-8.57-0.63 c-0.93-0.22-1.83-0.51-2.69-0.92c-0.87-0.41-1.71-0.93-2.52-1.6c-0.04-0.03-0.08-0.07-0.12-0.11l0,0L41.7,80.41L41.7,80.41z M44.52,45.8c-0.42,0.16-0.88-0.09-1.03-0.57c-0.14-0.48,0.08-1,0.5-1.17c1.63-0.64,3.27-0.93,4.91-0.92 c1.63,0.01,3.26,0.33,4.89,0.92c0.42,0.15,0.66,0.67,0.52,1.15c-0.13,0.48-0.59,0.75-1.01,0.6c-0.54-0.2-1.08-0.36-1.62-0.49 c0.05,0.19,0.08,0.4,0.08,0.61c0,1.25-1.01,2.27-2.27,2.27s-2.27-1.02-2.27-2.27c0-0.31,0.06-0.6,0.17-0.87 C46.45,45.18,45.48,45.42,44.52,45.8L44.52,45.8z M70.83,45.12c-0.1,0.25-0.15,0.52-0.15,0.81c0,1.25,1.01,2.27,2.27,2.27 c1.25,0,2.27-1.02,2.27-2.27c0-0.36-0.08-0.7-0.23-1c0.99,0.11,1.99,0.32,2.99,0.65c0.43,0.14,0.88-0.14,1-0.63 c0.12-0.49-0.13-1-0.56-1.14c-1.64-0.54-3.27-0.8-4.9-0.8c-1.63,0-3.24,0.27-4.84,0.8c-0.43,0.14-0.67,0.65-0.55,1.14 c0.12,0.49,0.57,0.77,1,0.63C69.69,45.39,70.26,45.24,70.83,45.12L70.83,45.12z M87.53,37.67C69.82,25,58.92,14.5,44.17,23.84 c-5.25,3.33-6.88,10.14-9.27,13.94c0,9.76,0,19.5,0,29.26c1.4,6.69,3.12,7.26,7.41,11.46l7.44,7.28c1.34,1.11,2.86,1.76,4.47,2.14 c2.83,0.66,12.33,0.87,14.99,0.02c1.62-0.52,3.14-1.48,4.55-2.96l5.41-5.25c5.22-5.07,8.76-7.25,8.38-15.63 C87.53,55.27,87.53,46.49,87.53,37.67L87.53,37.67z M51.62,36.02c0.71-0.03,1.31,0.52,1.34,1.23c0.03,0.71-0.52,1.31-1.23,1.34 c-1.97,0.09-3.65,0.49-5.06,1.17c-1.37,0.66-2.49,1.61-3.38,2.81c-0.42,0.57-1.23,0.69-1.8,0.27c-0.57-0.42-0.69-1.23-0.27-1.8 c1.14-1.54,2.58-2.74,4.33-3.59C47.27,36.61,49.28,36.12,51.62,36.02L51.62,36.02z M71.91,38.33c-0.71,0-1.28-0.58-1.28-1.29 c0-0.71,0.58-1.28,1.29-1.28c2.13,0.01,4.07,0.41,5.82,1.23c1.76,0.83,3.31,2.07,4.62,3.77c0.43,0.56,0.33,1.37-0.23,1.81 c-0.56,0.43-1.37,0.33-1.81-0.23c-1.05-1.37-2.28-2.36-3.67-3.01C75.25,38.66,73.67,38.34,71.91,38.33L71.91,38.33z M71.29,69.63 c-1.11,0.38-2.24,0.69-3.42,0.95v0c-1.21,0.33-2.32,0.54-3.3,0.56c-1.12,0.02-2.09-0.19-2.86-0.7c-0.24-0.16-0.45-0.33-0.63-0.5 c-0.19,0.18-0.4,0.35-0.63,0.5c-0.77,0.51-1.74,0.72-2.86,0.7c-0.98-0.02-2.1-0.22-3.3-0.56v0c-1.17-0.25-2.31-0.57-3.42-0.95 c-1.1-0.37-2.17-0.81-3.22-1.29c-0.51-0.24-0.71-0.8-0.45-1.27c0.15-0.28,0.43-0.46,0.74-0.51v0c0.56-0.09,1.01-0.15,1.43-0.21 l0.03,0c1.35-0.19,2.39-0.33,3.66-0.84c0.36-0.14,0.7-0.3,1.06-0.47c2.02-0.94,4.24-1.96,6.45-0.2c0.19,0.15,0.36,0.31,0.52,0.48 c0.16-0.17,0.33-0.32,0.52-0.48c2.21-1.76,4.42-0.73,6.45,0.2c0.35,0.16,0.7,0.32,1.06,0.47c1.27,0.51,2.31,0.65,3.66,0.84l0.03,0 c0.42,0.06,0.87,0.12,1.43,0.21l0,0c0.31,0.05,0.59,0.23,0.74,0.51c0.26,0.47,0.05,1.03-0.45,1.27 C73.47,68.82,72.4,69.26,71.29,69.63L71.29,69.63z M58.42,61.01c-0.45-0.37-0.5-1.03-0.13-1.48c0.37-0.45,1.04-0.5,1.48-0.13 c0.52,0.44,1.03,0.67,1.51,0.68c0.49,0.01,1.01-0.21,1.58-0.68c0.45-0.37,1.11-0.3,1.48,0.14c0.37,0.45,0.3,1.11-0.14,1.48 c-0.97,0.8-1.95,1.17-2.94,1.16C60.26,62.17,59.31,61.77,58.42,61.01L58.42,61.01z M55.12,74.88c-0.54-0.29-0.74-0.96-0.46-1.5 c0.29-0.54,0.96-0.74,1.49-0.46c1.7,0.9,3.38,1.36,5.02,1.37c1.65,0,3.3-0.45,4.95-1.36c0.53-0.29,1.21-0.1,1.5,0.44 c0.29,0.53,0.1,1.21-0.44,1.5c-1.98,1.09-3.98,1.63-6.01,1.63C59.15,76.49,57.13,75.95,55.12,74.88L55.12,74.88z M32.82,61.75 V51.19c-0.45-1.92-1.29-2.91-2.24-3.08C27.28,47.49,27.82,61.01,32.82,61.75L32.82,61.75z"/></g></svg>