<?xml version="1.0" encoding="utf-8"?><svg version="1.1" id="Layer_1" xmlns="http://www.w3.org/2000/svg" xmlns:xlink="http://www.w3.org/1999/xlink" x="0px" y="0px" viewBox="0 0 122.88 94.48" style="enable-background:new 0 0 122.88 94.48" xml:space="preserve"><style type="text/css"><![CDATA[
	.st0{fill-rule:evenodd;clip-rule:evenodd;fill:#3AB7FC;}
	.st1{fill-rule:evenodd;clip-rule:evenodd;fill:#3E9C2A;}
	.st2{fill-rule:evenodd;clip-rule:evenodd;fill:#EBC18F;}
	.st3{fill-rule:evenodd;clip-rule:evenodd;fill:#51B53C;}
	.st4{fill-rule:evenodd;clip-rule:evenodd;fill:#F1CA09;}
	.st5{fill-rule:evenodd;clip-rule:evenodd;fill:#C97630;}
	.st6{fill-rule:evenodd;clip-rule:evenodd;fill:#9A5D26;}
]]></style><g><path class="st0" d="M0.93,89.62c1.5,0.34,3.07,0.49,4.63,0.45c2.17-0.06,4.31-0.48,6.17-1.25c2.18-0.9,4.19-2.35,5.04-4.6 c0.78,2.16,2.92,3.74,5.01,4.6c1.86,0.77,4.01,1.2,6.17,1.25c2.17,0.06,4.37-0.25,6.34-0.95c3.16-1.11,3.83-2.56,5.91-5.01l0,0 c1.2,2.57,3.3,4.09,5.91,5.01c1.97,0.69,4.17,1,6.34,0.95c2.17-0.06,4.31-0.48,6.17-1.25c2.09-0.86,4.23-2.45,5.01-4.6 c0.85,2.25,2.88,3.7,5.04,4.6c1.86,0.77,4.01,1.2,6.17,1.25c2.17,0.06,4.37-0.25,6.34-0.95c3.15-1.11,3.83-2.57,5.91-5.01 c2.08,2.43,2.77,3.9,5.92,5.01c1.97,0.69,4.17,1,6.34,0.95c2.17-0.06,4.31-0.48,6.17-1.25c2.17-0.9,4.19-2.34,5.04-4.6 c0.78,2.15,2.92,3.73,5.01,4.6c1.86,0.77,4.01,1.2,6.17,1.25c0.38,0.01,0.76,0.01,1.13,0v4.4c-3.12,0.08-6.28-0.45-9.02-1.58 c-1.42-0.59-2.53-1.16-3.53-1.88c-1.35,0.92-2.69,1.71-3.1,1.88c-4.78,1.98-10.85,2.11-15.72,0.39c-1.61-0.57-3.1-1.33-4.41-2.31 c-1.31,0.98-2.81,1.74-4.41,2.31c-4.88,1.72-10.95,1.58-15.73-0.39c-0.41-0.17-1.74-0.97-3.1-1.88c-1,0.72-2.11,1.3-3.53,1.88 c-4.78,1.98-10.85,2.11-15.73,0.39c-1.42-0.5-2.81-1.13-4.04-1.94c-1.64,0.8-3.53,1.5-4.77,1.94c-4.87,1.72-10.95,1.58-15.72-0.39 c-1.42-0.59-2.53-1.16-3.53-1.88c-1.35,0.92-2.69,1.71-3.1,1.88c-3.77,1.56-8.35,1.97-12.51,1.23v-4.5H0.93L0.93,89.62z"/><path class="st2" d="M27.73,69.31C13.95,71.24,1.47,75.68,1.47,84.49c6.65,1.81,11.38-0.71,15.35-5.96 c8.88,7.71,14.54,10.06,23.47-0.45c5.83,10.17,17.37,7.79,23.48,0.32c6.75,8.76,18.41,9.44,23.32-1.44 c7.1,10.93,18.15,9.32,23.37,0.67c3.32,4.15,5.05,6.84,10.66,7.27c-3.69-11.94-16.91-17.53-33.9-18.17l-5.27-0.06 c-6.6,0.14-13.65,0.94-20.84,2.34c-4.46-0.87-14.23-1.33-24.6-0.61L27.73,69.31L27.73,69.31z"/><path class="st6" d="M83.73,42.51l2.5-0.68c-2.73,8.24-1.58,16.2,1,24.89l-5.27-0.06C79.91,53.41,81.68,47.68,83.73,42.51 L83.73,42.51z"/><path class="st6" d="M29.61,28.09c4.51,13.63,2.48,26.79-1.88,41.21l8.78-0.91c3.33-21.5,0.47-30.78-2.86-39.17L29.61,28.09 L29.61,28.09z"/><path class="st1" d="M16.12,57.81c1.18-13.83,3.59-25.21,13.49-29.72l4.04,1.13C39.76,33.06,45.2,41.34,50.4,54.5 c7.31-13.62,2.66-23.64-14.69-30.14c9.92-3.08,19.22,0.86,27.97,8.58c-4.67-17.63-18-21.88-29.91-11.82 C35.39,8.5,30.19,5.47,23.22,2.69c3.28,5,5.76,10.2,5.39,16.19C17.86,9.01,8.88,12.66,0.62,21.36c7.93-1.85,16.15-2.64,23.08,2.01 C11.26,21.8,4.3,28.81,0,38.01c5.2-4.77,10.11-7.86,15.31-8.42c-5.46,9.9-3.05,18.64,0.83,28.24L16.12,57.81L16.12,57.81 L16.12,57.81z"/><path class="st3" d="M28.61,18.88l-0.07,3.82c-7.42-8.65-19.87-6.36-27.93-1.34C8.99,12.02,18.86,9.78,28.61,18.88L28.61,18.88z"/><path class="st3" d="M0,38.01c5.02-11.78,17.2-18.96,29.26-12.59C15.86,21.3,7.84,28.96,0,38.01L0,38.01z"/><path class="st4" d="M71.07,22.63c0,0.41-0.34,0.75-0.75,0.75s-0.75-0.34-0.75-0.75v-1.92c0-0.41,0.34-0.75,0.75-0.75 c0.41,0,0.75,0.34,0.75,0.75V22.63L71.07,22.63L71.07,22.63z"/><path class="st4" d="M76.46,20.87c0.21,0.36,0.09,0.82-0.27,1.02c-0.36,0.21-0.82,0.09-1.02-0.27l-0.96-1.67 c-0.21-0.36-0.09-0.82,0.27-1.02c0.36-0.21,0.82-0.09,1.02,0.27L76.46,20.87L76.46,20.87L76.46,20.87z"/><path class="st4" d="M80.25,16.65c0.36,0.21,0.48,0.66,0.28,1.02c-0.21,0.36-0.66,0.48-1.02,0.28l-1.67-0.96 c-0.36-0.21-0.48-0.66-0.28-1.02c0.21-0.36,0.66-0.48,1.02-0.28L80.25,16.65L80.25,16.65L80.25,16.65L80.25,16.65z"/><path class="st4" d="M75.43,1.92c0.21-0.36,0.66-0.48,1.02-0.28c0.36,0.21,0.48,0.66,0.28,1.02l-0.96,1.67 c-0.21,0.36-0.66,0.48-1.02,0.28c-0.36-0.21-0.48-0.66-0.28-1.02L75.43,1.92L75.43,1.92L75.43,1.92L75.43,1.92z"/><path class="st4" d="M69.88,0.75c0-0.41,0.33-0.75,0.75-0.75c0.41,0,0.75,0.34,0.75,0.75v1.92c0,0.41-0.34,0.75-0.75,0.75 c-0.41,0-0.75-0.34-0.75-0.75V0.75L69.88,0.75L69.88,0.75z"/><path class="st4" d="M64.49,2.52C64.28,2.16,64.4,1.7,64.75,1.5c0.36-0.21,0.82-0.09,1.02,0.27l0.96,1.67 c0.21,0.36,0.09,0.82-0.27,1.02c-0.36,0.21-0.82,0.09-1.02-0.27L64.49,2.52L64.49,2.52L64.49,2.52z"/><path class="st4" d="M81.42,11.1c0.41,0,0.75,0.34,0.75,0.75c0,0.41-0.34,0.75-0.75,0.75H79.5c-0.41,0-0.75-0.34-0.75-0.75 c0-0.41,0.34-0.75,0.75-0.75H81.42L81.42,11.1L81.42,11.1z"/><path class="st4" d="M79.65,5.71c0.36-0.21,0.82-0.09,1.03,0.27C80.88,6.34,80.76,6.8,80.4,7l-1.67,0.96 c-0.36,0.21-0.82,0.09-1.02-0.27c-0.21-0.36-0.09-0.82,0.27-1.02L79.65,5.71L79.65,5.71L79.65,5.71z"/><path class="st4" d="M70.46,4.99c1.85,0,3.53,0.75,4.74,1.96c1.21,1.21,1.96,2.89,1.96,4.74c0,1.85-0.75,3.53-1.96,4.74 s-2.89,1.96-4.74,1.96c-1.85,0-3.53-0.75-4.74-1.96s-1.96-2.89-1.96-4.74c0-1.85,0.75-3.53,1.96-4.74 C66.95,5.74,68.62,4.99,70.46,4.99L70.46,4.99L70.46,4.99z"/><path class="st4" d="M65.52,21.46c-0.21,0.36-0.66,0.48-1.02,0.28c-0.36-0.21-0.48-0.66-0.28-1.02l0.96-1.67 c0.21-0.36,0.66-0.48,1.02-0.28c0.36,0.21,0.48,0.66,0.28,1.02L65.52,21.46L65.52,21.46L65.52,21.46L65.52,21.46z"/><path class="st4" d="M60.69,6.74c-0.36-0.21-0.48-0.66-0.28-1.02c0.21-0.36,0.66-0.48,1.02-0.28L63.1,6.4 c0.36,0.21,0.48,0.66,0.28,1.02c-0.21,0.36-0.66,0.48-1.02,0.28L60.69,6.74L60.69,6.74L60.69,6.74L60.69,6.74z"/><path class="st4" d="M59.52,12.29c-0.41,0-0.75-0.34-0.75-0.75c0-0.41,0.34-0.75,0.75-0.75h1.92c0.41,0,0.75,0.34,0.75,0.75 c0,0.41-0.34,0.75-0.75,0.75H59.52L59.52,12.29L59.52,12.29z"/><path class="st4" d="M61.29,17.68c-0.36,0.21-0.82,0.09-1.02-0.27c-0.21-0.36-0.09-0.82,0.27-1.02l1.67-0.96 c0.36-0.21,0.82-0.09,1.02,0.27c0.21,0.36,0.09,0.82-0.27,1.02L61.29,17.68L61.29,17.68L61.29,17.68z"/><path class="st3" d="M33.77,21.12c12.41-3.15,22.79-0.38,29.91,11.82C60.83,19.32,48.2,9.1,33.77,21.12L33.77,21.12z"/><path class="st3" d="M35.71,24.36C52.04,30.84,57.99,38.78,50.4,54.5C53.34,39.66,45.66,31.97,35.71,24.36L35.71,24.36z"/><path class="st3" d="M29.61,28.09c-12.64,0.34-16.84,13.03-13.47,29.74C8.42,41.34,11.52,20.9,29.61,28.09L29.61,28.09z"/><path class="st1" d="M76.45,60.85c0.74-8.7,2.26-15.85,8.48-18.69l2.54,0.71c3.84,2.42,7.26,7.62,10.53,15.9 c4.6-8.56,1.67-14.87-9.24-18.95c6.24-1.94,12.09,0.54,17.59,5.4c-2.94-11.09-11.32-13.76-18.81-7.43 c1.02-7.94-2.25-9.84-6.63-11.59c2.06,3.14,3.62,6.41,3.39,10.18c-6.76-6.21-12.41-3.91-17.6,1.56c4.99-1.16,10.16-1.66,14.51,1.26 c-7.82-0.99-12.2,3.42-14.9,9.21c3.27-3,6.36-4.94,9.63-5.3c-3.43,6.23-1.92,11.72,0.52,17.76L76.45,60.85L76.45,60.85L76.45,60.85 z"/><path class="st3" d="M84.3,36.36l-0.04,2.4c-4.67-5.44-12.5-4-17.56-0.84C71.97,32.05,78.17,30.64,84.3,36.36L84.3,36.36z"/><path class="st3" d="M66.31,48.39c3.16-7.41,10.82-11.92,18.4-7.92C76.29,37.89,71.24,42.7,66.31,48.39L66.31,48.39z"/><path class="st3" d="M87.55,37.77c7.81-1.98,14.33-0.24,18.81,7.43C104.56,36.64,96.62,30.22,87.55,37.77L87.55,37.77z"/><path class="st3" d="M88.77,39.81c10.27,4.07,14.01,9.07,9.24,18.95C99.85,49.43,95.03,44.59,88.77,39.81L88.77,39.81z"/><path class="st3" d="M84.93,42.16c-7.95,0.21-10.59,8.19-8.47,18.7C71.6,50.48,73.56,37.63,84.93,42.16L84.93,42.16z"/><path class="st5" d="M29.61,28.09c4.29,14.45,2.36,28.18-1.88,41.21l5.35-0.55c2.22-21.5,0.33-31.82-1.88-40.21L29.61,28.09 L29.61,28.09z"/></g></svg>